<svg xmlns="http://www.w3.org/2000/svg" width="86.935" height="61.056" viewBox="0 0 86.935 61.056">
  <g id="Group_20339" data-name="Group 20339" transform="translate(-925.986 -1336.485)">
    <path id="Path_18666" data-name="Path 18666" d="M0,5.026A1.269,1.269,0,0,1,.5,4.013,19.363,19.363,0,0,1,12.366,0,19.63,19.63,0,0,1,24.55,4.256,1.275,1.275,0,1,1,22.959,6.25a16.8,16.8,0,0,0-10.594-3.7,16.758,16.758,0,0,0-10.315,3.5A1.3,1.3,0,0,1,.258,5.806,1.319,1.319,0,0,1,0,5.026" transform="translate(942.42 1371.801) rotate(-90)" fill="#1a1818" stroke="#030504" stroke-miterlimit="10" stroke-width="0.098"/>
    <path id="Path_18667" data-name="Path 18667" d="M0,8.729A1.472,1.472,0,0,1,.579,7.551,35.379,35.379,0,0,1,22.556,0,35.43,35.43,0,0,1,44.622,7.618a1.494,1.494,0,1,1-1.844,2.35A32.466,32.466,0,0,0,22.556,2.99,32.42,32.42,0,0,0,2.422,9.907,1.5,1.5,0,0,1,0,8.729" transform="translate(926.035 1381.816) rotate(-90)" fill="#1a1818" stroke="#030504" stroke-miterlimit="10" stroke-width="0.098"/>
    <path id="Path_18668" data-name="Path 18668" d="M0,7.257A1.467,1.467,0,0,1,.579,6.074,29.084,29.084,0,0,1,18.455,0,29.053,29.053,0,0,1,36.673,6.343a1.494,1.494,0,0,1-1.859,2.34A26.362,26.362,0,0,0,2.4,8.44,1.489,1.489,0,0,1,0,7.257" transform="translate(934.232 1377.911) rotate(-90)" fill="#1a1818" stroke="#030504" stroke-miterlimit="10" stroke-width="0.098"/>
    <path id="Path_18669" data-name="Path 18669" d="M0,1.5A1.262,1.262,0,0,0,.5,2.514,19.363,19.363,0,0,0,12.366,6.527,19.63,19.63,0,0,0,24.55,2.271,1.275,1.275,0,1,0,22.959.277a16.8,16.8,0,0,1-10.594,3.7A16.758,16.758,0,0,1,2.051.479,1.3,1.3,0,0,0,.258.721,1.318,1.318,0,0,0,0,1.5" transform="translate(989.975 1371.801) rotate(-90)" fill="#1a1818" stroke="#030504" stroke-miterlimit="10" stroke-width="0.098"/>
    <path id="Path_18670" data-name="Path 18670" d="M0,1.558A1.489,1.489,0,0,0,.579,2.741a35.4,35.4,0,0,0,21.978,7.546A35.454,35.454,0,0,0,44.622,2.674,1.5,1.5,0,1,0,42.778.318,32.471,32.471,0,0,1,22.556,7.3,32.424,32.424,0,0,1,2.422.38,1.5,1.5,0,0,0,0,1.558" transform="translate(1002.585 1381.816) rotate(-90)" fill="#1a1818" stroke="#030504" stroke-miterlimit="10" stroke-width="0.098"/>
    <path id="Path_18671" data-name="Path 18671" d="M0,1.753A1.466,1.466,0,0,0,.579,2.935,29.082,29.082,0,0,0,18.455,9.01,29.052,29.052,0,0,0,36.673,2.667a1.494,1.494,0,0,0,.238-2.1,1.484,1.484,0,0,0-2.1-.243A26.106,26.106,0,0,1,18.455,6.019,26.086,26.086,0,0,1,2.4.57,1.5,1.5,0,0,0,.3.844a1.481,1.481,0,0,0-.3.909" transform="translate(995.671 1377.911) rotate(-90)" fill="#1a1818" stroke="#030504" stroke-miterlimit="10" stroke-width="0.098"/>
    <path id="Path_18672" data-name="Path 18672" d="M18.744,12.624A12.624,12.624,0,0,0,6.131,0H0V40.764H6.131A12.62,12.62,0,0,0,18.744,28.155Z" transform="translate(949.01 1397.492) rotate(-90)" fill="#1a1818" stroke="#030504" stroke-miterlimit="10" stroke-width="0.098"/>
    <path id="Path_18673" data-name="Path 18673" d="M5.075,2.8A13.214,13.214,0,1,0,23.623,5.076,13.224,13.224,0,0,0,5.075,2.8" transform="translate(956.209 1372.702) rotate(-90)" fill="#1a1818" stroke="#030504" stroke-miterlimit="10" stroke-width="0.098"/>
  </g>
</svg>
