<svg xmlns="http://www.w3.org/2000/svg" width="60.564" height="60.554" viewBox="0 0 60.564 60.554">
  <path id="Path_18655" data-name="Path 18655" d="M25.227,45.557a2.533,2.533,0,0,1,2.521-2.515,2.5,2.5,0,0,1,1.782.718l8.688,8.708A10.075,10.075,0,0,0,52.464,38.217L43.781,29.5a2.529,2.529,0,1,1,3.595-3.559l8.652,8.714A15.112,15.112,0,0,1,34.654,56.027l-8.683-8.683a2.516,2.516,0,0,1-.723-1.787M0,15.113a15.113,15.113,0,0,1,25.79-10.7l8.853,8.853a2.527,2.527,0,0,1-1.787,4.318,2.5,2.5,0,0,1-1.777-.718L22.227,8.017A10.075,10.075,0,1,0,7.981,22.267l8.848,8.848a2.544,2.544,0,1,1-3.6,3.6L4.381,25.862A15.068,15.068,0,0,1,0,15.113M20.15,22.67a2.512,2.512,0,0,1,4.318-1.8L39.576,35.981a2.482,2.482,0,0,1,.723,1.777,2.519,2.519,0,0,1-4.318,1.823L20.868,24.468a2.532,2.532,0,0,1-.718-1.787" transform="translate(0.06 60.505) rotate(-90)" fill="#1a1818" stroke="#030504" stroke-miterlimit="10" stroke-width="0.098"/>
</svg>
