<svg xmlns="http://www.w3.org/2000/svg" width="66.3" height="67.469" viewBox="0 0 66.3 67.469">
  <path id="Path_18661" data-name="Path 18661" d="M50.265,4.757a1.654,1.654,0,1,1-1.632,2.877,33.6,33.6,0,0,0-16.6-4.323c-.857,0-1.72.031-2.577.093A1.655,1.655,0,1,1,29.217.1c.94-.067,1.88-.1,2.82-.1A36.83,36.83,0,0,1,50.265,4.757ZM22.187,64.9a1.654,1.654,0,0,1,.868-3.192A34.055,34.055,0,0,0,32.037,62.9a33.454,33.454,0,0,0,17.9-5.109,1.655,1.655,0,0,1,1.772,2.794A36.771,36.771,0,0,1,32.037,66.2a37.33,37.33,0,0,1-9.85-1.307Zm35.63-9.2a1.655,1.655,0,1,1-2.345-2.335A28.368,28.368,0,0,0,54.3,11.73a1.655,1.655,0,1,1,2.221-2.454A31.672,31.672,0,0,1,57.817,55.7ZM57.3,23.336a1.655,1.655,0,1,1-3.047,1.291,21.834,21.834,0,0,0-20.2-13.285c-6.446-.594-11.162-2.485-14.08-5.749a1.654,1.654,0,0,1,2.464-2.206C24.718,5.94,28.67,7.52,34.207,8.042A25.067,25.067,0,0,1,57.3,23.336ZM7.456,54.09a1.655,1.655,0,1,1,1.482-2.96,31.912,31.912,0,0,0,4.05,1.684c5.764,1.958,11.115,2.371,18.559,2.112L33,54.88c.5-.021.878-.026,1.209-.026a1.655,1.655,0,0,1,0,3.311c-.289,0-.635.005-1.105.02l-1.441.052c-7.81.269-13.5-.171-19.736-2.293A35.862,35.862,0,0,1,7.456,54.09Zm35.066,2.66a1.653,1.653,0,1,1-1.095-3.12,21.772,21.772,0,0,0,14.5-21.741,1.655,1.655,0,0,1,3.306-.181A25.067,25.067,0,0,1,42.523,56.75Zm8.92-19.473a1.655,1.655,0,1,1-3.264-.548,15.78,15.78,0,0,0-3.559-13,10.767,10.767,0,0,0-7.433-4.117c-.63-.1-1.116-.171-2.319-.315-3.3-.4-4.8-.723-6.6-1.627a1.654,1.654,0,1,1,1.477-2.96c1.358.677,2.6.945,5.527,1.3,1.255.15,1.767.222,2.459.336a14,14,0,0,1,9.473,5.31,19.106,19.106,0,0,1,4.241,15.614ZM23.024,12.024a1.655,1.655,0,0,1-1.043,3.141,22.074,22.074,0,0,1-8.45-5.6,1.656,1.656,0,0,1,2.34-2.345,18.889,18.889,0,0,0,7.154,4.8ZM43.442,43.635a1.655,1.655,0,0,1,2.34,2.34c-2.949,2.949-7.267,4.39-12.877,4.39-13.93,0-24.426-2.954-32.267-9.488a1.656,1.656,0,1,1,2.118-2.547c7.169,5.976,16.926,8.724,30.149,8.724,4.8,0,8.28-1.162,10.537-3.419Zm-9.256-1.074a1.655,1.655,0,0,1,.036-3.311c4.277.046,6.131-1.8,6.131-6.147s-1.854-6.2-6.255-6.152c-13.512-.9-23.114-5.93-28.62-15.108a1.654,1.654,0,1,1,2.836-1.7c4.9,8.166,13.5,12.67,25.872,13.5,6.131-.072,9.478,3.28,9.478,9.458s-3.347,9.525-9.478,9.457Zm.021-11.116a1.655,1.655,0,0,1,0,3.311c-13.461,0-24.313-4.519-32.443-13.553a1.655,1.655,0,0,1,2.464-2.211C11.707,27.3,21.655,31.445,34.207,31.445Zm-7.552,7.825a1.654,1.654,0,1,1-.5,3.269C14.522,40.748,5.927,36.678.437,30.278A1.675,1.675,0,0,1,.086,28.62a1.66,1.66,0,0,1,2.867-.5c4.917,5.733,12.794,9.468,23.7,11.146Zm0,0" transform="translate(0.049 67.36) rotate(-90)" fill="#1a1818" stroke="#030504" stroke-miterlimit="10" stroke-width="0.098"/>
</svg>
