<svg xmlns="http://www.w3.org/2000/svg" width="106.511" height="32.694" viewBox="0 0 106.511 32.694">
  <g id="Group_19089" data-name="Group 19089" transform="translate(-1016.55 -2730.998)" style="isolation: isolate">
    <path id="Path_229" data-name="Path 229" d="M61.9,32.563,67.3.9h8.613l-5.4,31.663Z" transform="translate(992.195 2730.644)" fill="#2699fb"/>
    <path id="Path_230" data-name="Path 230" d="M110.9,1.334A21.477,21.477,0,0,0,103.2,0C94.644,0,88.639,4.307,88.639,10.433c-.061,4.549,4.307,7.1,7.582,8.613,3.336,1.577,4.489,2.548,4.489,3.943,0,2.123-2.669,3.094-5.156,3.094a18.553,18.553,0,0,1-8.128-1.638L86.213,23.9,85,31a27.256,27.256,0,0,0,9.644,1.7c9.1,0,14.982-4.246,15.043-10.8.061-3.579-2.244-6.369-7.218-8.613-3.033-1.456-4.852-2.426-4.852-3.943,0-1.334,1.577-2.73,4.913-2.73a14.937,14.937,0,0,1,6.43,1.213l.789.364L110.9,1.334" transform="translate(983.106 2730.998)" fill="#2699fb"/>
    <path id="Path_231" data-name="Path 231" d="M148.62,1h-6.672c-2.062,0-3.639.546-4.549,2.608L124.6,32.6h9.038s1.456-3.882,1.82-4.731H146.5c.243,1.092,1.031,4.731,1.031,4.731h8.007L148.62,1M138,21.381c.728-1.82,3.457-8.856,3.457-8.856-.061.061.728-1.82,1.152-3.033l.607,2.73s1.638,7.582,2,9.159Z" transform="translate(967.526 2730.605)" fill="#2699fb"/>
    <path id="Path_232" data-name="Path 232" d="M36.19.9,27.7,22.494l-.91-4.367C25.272,13.092,20.359,7.572,14.9,4.843l7.7,27.72h9.159L45.35.9H36.19" transform="translate(1010.688 2730.644)" fill="#2699fb"/>
    <path id="Path_233" data-name="Path 233" d="M14.012.9H.121L0,1.567c10.858,2.608,18.015,8.977,20.987,16.559L17.954,3.569c-.546-2-2.062-2.608-3.943-2.669" transform="translate(1016.55 2730.644)" fill="#ff9f21"/>
  </g>
</svg>
