<svg xmlns="http://www.w3.org/2000/svg" width="69.505" height="50.357" viewBox="0 0 69.505 50.357">
  <path id="Path_18674" data-name="Path 18674" d="M32.042,56.318A9.443,9.443,0,1,0,44.3,51.044a9.43,9.43,0,0,0-12.257,5.274Zm11.095-2.345a6.3,6.3,0,1,1-4.819,0,6.293,6.293,0,0,1,4.819,0ZM21.778,67.066a14.171,14.171,0,0,1,7.428-18.6,14.156,14.156,0,0,0,7.428-18.553L36,28.457a1.586,1.586,0,0,0-2.717-.387,1.592,1.592,0,0,0-.222,1.57l.63,1.446a11.014,11.014,0,0,1-5.78,14.462A17.314,17.314,0,0,0,18.9,68.29a1.574,1.574,0,0,0,2.882-1.224Zm1.4-26.141a4.865,4.865,0,0,0,1.054-6.865L2.91.73A1.578,1.578,0,0,0,.25,2.43l21.4,33.408a1.818,1.818,0,0,1,.393,1.39,1.579,1.579,0,0,1-.677,1.1L14.02,43.57a2.021,2.021,0,0,1-3.151-1.575l-.8-18.383a1.57,1.57,0,0,0-1.575-1.576,1.568,1.568,0,0,0-1.111.46,1.588,1.588,0,0,0-.46,1.116l.8,18.491a5.161,5.161,0,0,0,8.027,4.029Zm-13-39.349a1.586,1.586,0,0,0,.253.832l7.144,11.271a1.575,1.575,0,0,0,2.727-.108A1.576,1.576,0,0,0,20.234,12L13.075.73a1.573,1.573,0,0,0-2.9.847Zm9.447,2.9a1.561,1.561,0,0,0,.232.816l4,6.549a1.574,1.574,0,1,0,2.691-1.575L22.532,3.654a1.571,1.571,0,0,0-2.908.821Zm0,0" transform="translate(0.063 50.304) rotate(-90)" fill="#1a1818" stroke="#030504" stroke-miterlimit="10" stroke-width="0.098"/>
</svg>
