<svg xmlns="http://www.w3.org/2000/svg" width="87" height="86" viewBox="0 0 87 86">
  <g id="Group_20010" data-name="Group 20010" transform="translate(-2815 7063)">
    <path id="Path_4033" data-name="Path 4033" d="M498.426,713.267a5.752,5.752,0,0,1-11.5,0H475.065a5.752,5.752,0,0,1-11.5,0h-6.107v28.759a5.751,5.751,0,0,0,5.752,5.752h34.511a5.751,5.751,0,0,0,5.752-5.752V713.267Zm-10.394,16.77a2.97,2.97,0,0,1-2.817,2.03H480.5l-3.015,9.049a1.98,1.98,0,0,1-1.878,1.353h-3.775l4.524-13.573a2.972,2.972,0,0,1,2.817-2.03h9.915Z" transform="translate(2377.991 -7750.417)"/>
    <path id="Path_4034" data-name="Path 4034" d="M499.426,714.267a5.752,5.752,0,0,1-11.5,0H476.065a5.752,5.752,0,0,1-11.5,0h-6.107v28.759a5.751,5.751,0,0,0,5.752,5.752h34.511a5.751,5.751,0,0,0,5.752-5.752V714.267Zm-10.394,16.77a2.97,2.97,0,0,1-2.817,2.03H481.5l-3.015,9.049a1.98,1.98,0,0,1-1.878,1.353h-3.775l4.524-13.573a2.972,2.972,0,0,1,2.817-2.03h9.915Z" transform="translate(2378.429 -7749.979)" fill="#fff"/>
    <g id="Group_11810" data-name="Group 11810" transform="translate(2815.314 -7063.033)">
      <rect id="Rectangle_1822" data-name="Rectangle 1822" width="87" height="86" rx="24" transform="translate(-0.314 0.033)" fill="#fafbfe"/>
    </g>
    <g id="Mada_Logo" transform="translate(2827.386 -7030.25)">
      <rect id="Rectangle_1921" data-name="Rectangle 1921" width="26.038" height="8.674" transform="translate(0 11.836)" fill="#84b740"/>
      <rect id="Rectangle_1922" data-name="Rectangle 1922" width="26.038" height="8.682" fill="#259bd6"/>
      <path id="Path_4203" data-name="Path 4203" d="M620.361,141.188l-.116.023a3.8,3.8,0,0,1-.843.108c-.68,0-1.484-.348-1.484-1.987,0-.843.139-1.964,1.407-1.964h.008a3.809,3.809,0,0,1,.928.178l.1.031v3.61Zm.209-8.172-.209.039v3.03l-.186-.054-.054-.015a4.269,4.269,0,0,0-1.152-.2c-2.536,0-3.069,1.917-3.069,3.525a3.126,3.126,0,0,0,3.394,3.471,6.88,6.88,0,0,0,2.265-.317,1,1,0,0,0,.85-1.1v-8.7c-.6.108-1.229.216-1.84.317" transform="translate(-568.286 -122.441)" fill="#27292d"/>
      <path id="Path_4204" data-name="Path 4204" d="M718.968,177.966l-.108.031-.386.1a4.031,4.031,0,0,1-.935.147c-.6,0-.951-.294-.951-.8,0-.325.147-.874,1.121-.874h1.26Zm-.889-5.466a8.556,8.556,0,0,0-2.582.448l-.649.193.217,1.469.634-.209a7.453,7.453,0,0,1,2.11-.356c.278,0,1.129,0,1.129.92v.4h-1.183c-2.157,0-3.154.688-3.154,2.165,0,1.26.92,2.018,2.466,2.018a7.972,7.972,0,0,0,1.716-.232l.031-.008.031.008.193.031c.6.108,1.229.216,1.84.332v-4.824c0-1.562-.943-2.358-2.8-2.358" transform="translate(-659.355 -159.164)" fill="#27292d"/>
      <path id="Path_4205" data-name="Path 4205" d="M524.668,177.966l-.108.031-.387.1a3.971,3.971,0,0,1-.936.147c-.6,0-.951-.294-.951-.8,0-.325.147-.874,1.113-.874h1.26l.008,1.392Zm-.881-5.466a8.517,8.517,0,0,0-2.582.448l-.649.193.216,1.469.634-.209a7.453,7.453,0,0,1,2.111-.356c.278,0,1.129,0,1.129.92v.4h-1.183c-2.157,0-3.162.688-3.162,2.165,0,1.26.92,2.018,2.474,2.018a7.973,7.973,0,0,0,1.716-.232l.031-.008.031.008.185.031c.611.108,1.229.216,1.84.34v-4.824c.008-1.577-.935-2.366-2.791-2.366" transform="translate(-480.076 -159.164)" fill="#27292d"/>
      <path id="Path_4206" data-name="Path 4206" d="M384.952,172.608a5.216,5.216,0,0,0-2.1.464l-.077.039-.07-.054a3.171,3.171,0,0,0-1.879-.456,7.687,7.687,0,0,0-2.219.332c-.657.2-.912.518-.912,1.113v5.512h2.056v-5.095l.1-.031a2.616,2.616,0,0,1,.9-.162.813.813,0,0,1,.9.935v4.36h2.026V175.12a1.494,1.494,0,0,0-.062-.448l-.07-.131.139-.062a2.438,2.438,0,0,1,1.005-.209.819.819,0,0,1,.9.935v4.36h2.018V175c0-1.616-.866-2.4-2.659-2.4" transform="translate(-348.501 -159.257)" fill="#27292d"/>
      <path id="Path_4207" data-name="Path 4207" d="M594.089,5.659a7.016,7.016,0,0,1-1.2-.108l-.116-.023V2.551a1.451,1.451,0,0,0-.054-.425L592.659,2l.131-.054c.031-.015.062-.023.1-.039l.023-.015.139-.046a.2.2,0,0,1,.054-.015,4.8,4.8,0,0,1,1.059-.124h.008c1.26,0,1.407,1.121,1.407,1.964-.008,1.639-.82,1.987-1.492,1.987M594.081,0h-.054a3.643,3.643,0,0,0-2.83.959,1.933,1.933,0,0,0-.371,1.152h0V5.18a.9.9,0,0,1-.062.387l-.069.131h-3.734V3.564h-.008c-.046-2.25-1.376-3.487-3.3-3.487h-1.879c-.077.549-.139.935-.216,1.484h1.871c.982,0,1.5.835,1.5,2.118V5.829l-.131-.07a1.419,1.419,0,0,0-.441-.062h-3.231c-.062.41-.139.943-.224,1.477h9.934c.34-.07.735-.131,1.075-.186a5.6,5.6,0,0,0,2.08.379A3.392,3.392,0,0,0,597.544,3.7,3.409,3.409,0,0,0,594.081,0" transform="translate(-535.991)" fill="#27292d"/>
      <path id="Path_4208" data-name="Path 4208" d="M389.173,9.094h.093c2.157,0,3.162-.711,3.162-2.466a2.258,2.258,0,0,0-2.466-2.265h-1.987a.856.856,0,0,1-.951-.912c0-.387.147-.866,1.121-.866h4.345c.093-.564.139-.92.224-1.484H388.2c-2.1,0-3.162.881-3.162,2.35,0,1.453.92,2.211,2.466,2.211h1.987a.938.938,0,0,1,.951.966.971.971,0,0,1-1.113,1h-.332l-6.362-.015h-1.16c-.982,0-1.67-.557-1.67-1.848V4.873c0-1.345.533-2.18,1.67-2.18h1.886c.085-.572.139-.935.216-1.477H381c-1.925,0-3.255,1.291-3.3,3.541h0V5.762A3.051,3.051,0,0,0,381,9.086h1.879l3.448.008h2.845Z" transform="translate(-348.501 -1.015)" fill="#27292d"/>
    </g>
  </g>
</svg>
