<svg xmlns="http://www.w3.org/2000/svg" width="86" height="86" viewBox="0 0 86 86">
  <g id="Group_20348" data-name="Group 20348" transform="translate(-1620 -6563)">
    <g id="Group_20016" data-name="Group 20016" transform="translate(170 193)">
      <rect id="Rectangle_1822" data-name="Rectangle 1822" width="86" height="86" rx="24" transform="translate(1450 6370)" fill="#fafbfe"/>
    </g>
    <g id="GooglePlay" transform="translate(1643 6584.459)">
      <g id="GooglePlay-2" data-name="GooglePlay">
        <g id="Google_Play_symbol_2016" transform="translate(0 0)">
          <g id="g3042" transform="translate(0 0)">
            <path id="path16" d="M6.495,13.206l9.059-5.023c1.024-.568,2.1-2.017,0-3.175L6.489,0,0,6.623l6.495,6.582Z" transform="translate(22.331 14.468)" fill="#ffe300"/>
            <path id="path23" d="M20.755,0,0,21.183a2.791,2.791,0,0,0,1.681-.425L27.25,6.582,20.755,0Z" transform="translate(1.576 21.091)" fill="#ff4e54"/>
            <path id="path30" d="M20.77,21.091l6.489-6.623L1.7.342A2.436,2.436,0,0,0,0,.049L20.77,21.091Z" transform="translate(1.561)" fill="#00f085"/>
            <path id="path37" d="M22.331,21.043,1.561,0C.7.194,0,.946,0,2.458V39.7c0,1.424.553,2.425,1.576,2.525L22.331,21.043Z" transform="translate(0 0.049)" fill="#00e0ff"/>
          </g>
        </g>
      </g>
    </g>
  </g>
</svg>
