<svg xmlns="http://www.w3.org/2000/svg" width="87" height="86" viewBox="0 0 87 86">
  <g id="Group_20013" data-name="Group 20013" transform="translate(-1087 -6370)">
    <rect id="Rectangle_1822" data-name="Rectangle 1822" width="87" height="86" rx="24" transform="translate(1087 6370)" fill="#fafbfe"/>
    <path id="Path_4192" data-name="Path 4192" d="M5.736,26.852l3.02,3.02,6.523-6.5-2.995-3.02h0l-1.371-1.371a5.658,5.658,0,0,1-1.675-4.061A5.531,5.531,0,0,1,10.482,11.4h0a5.741,5.741,0,0,1,8.6-.508l1.345,1.294,3.02,3.046L30,8.731l-3.046-3.02-1.371-1.32A14.985,14.985,0,0,0,0,14.949a14.855,14.855,0,0,0,1.167,5.812,14.568,14.568,0,0,0,3.223,4.746l1.345,1.345" transform="translate(1100.478 6391.298)" fill="#ea4335"/>
    <path id="Path_4193" data-name="Path 4193" d="M46.429,75.786l9.314-9.264L49.2,60l-8.172,8.147h0l-6.523,6.5L38,78.172l3.02,2.995L44.17,78.02" transform="translate(1074.734 6346.526)" fill="#fbbc04"/>
    <path id="Path_4194" data-name="Path 4194" d="M81.418,113.292l14.72-14.7L89.59,92.1,74.9,106.77l-8.172-8.147-6.523,6.5,8.172,8.172-.025.025,6.548,6.167h0l6.548-6.193h0Z" transform="translate(1055.556 6322.573)" fill="#34a853"/>
    <path id="Path_4195" data-name="Path 4195" d="M124.506,25.553a15.6,15.6,0,0,0,4.315-12.436A14.686,14.686,0,0,0,114.963.1a14.969,14.969,0,0,0-11.649,4.34L92.4,15.274,98.923,21.8l10.913-10.863a5.743,5.743,0,1,1,8.122,8.122l-4.34,4.365,6.548,6.5Z" transform="translate(1031.529 6391.252)" fill="#4285f4"/>
  </g>
</svg>
