<svg xmlns="http://www.w3.org/2000/svg" width="86" height="86" viewBox="0 0 86 86">
  <g id="Group_20012" data-name="Group 20012" transform="translate(-1208 -6370)">
    <rect id="Rectangle_1822" data-name="Rectangle 1822" width="86" height="86" rx="24" transform="translate(1208 6370)" fill="#fafbfe"/>
    <path id="Path_4198" data-name="Path 4198" d="M32.728.977A20.751,20.751,0,0,0,26.469,0,20.455,20.455,0,0,0,10.8,7.324l9.677,8.123Z" transform="translate(1224.637 6383.84)" fill="#1a73e8"/>
    <path id="Path_4199" data-name="Path 4199" d="M4.794,16.5A20.485,20.485,0,0,0,0,29.639,22.649,22.649,0,0,0,2.042,39.4L14.471,24.623,4.794,16.5Z" transform="translate(1230.643 6374.665)" fill="#ea4335"/>
    <path id="Path_4200" data-name="Path 4200" d="M38.637,13.874a7.842,7.842,0,0,1,5.993,12.917s6.17-7.369,12.207-14.515A20.449,20.449,0,0,0,44.851,2.2L32.6,16.671a7.963,7.963,0,0,1,6.037-2.8" transform="translate(1212.514 6382.617)" fill="#4285f4"/>
    <path id="Path_4201" data-name="Path 4201" d="M23.066,47.673a7.843,7.843,0,0,1-7.857-7.857,7.642,7.642,0,0,1,1.82-5.016L4.6,49.582c2.131,4.705,5.682,8.523,9.322,13.272L29.058,44.876a7.793,7.793,0,0,1-5.993,2.8" transform="translate(1228.085 6364.488)" fill="#fbbc04"/>
    <path id="Path_4202" data-name="Path 4202" d="M40.47,62.32c6.836-10.7,14.782-15.536,14.782-27.965A20.528,20.528,0,0,0,52.944,24.9L25.6,57.349c1.154,1.509,2.353,3.24,3.507,5.016,4.173,6.436,3.018,10.254,5.682,10.254s1.509-3.862,5.682-10.3" transform="translate(1216.406 6369.993)" fill="#34a853"/>
  </g>
</svg>
