<svg xmlns="http://www.w3.org/2000/svg" xmlns:xlink="http://www.w3.org/1999/xlink" width="86" height="86" viewBox="0 0 86 86">
  <defs>
    <linearGradient id="linear-gradient" x1="0.049" y1="0.539" x2="0.63" y2="1.048" gradientUnits="objectBoundingBox">
      <stop offset="0" stop-color="#bf360c" stop-opacity="0.102"/>
      <stop offset="1" stop-color="#bf360c" stop-opacity="0.02"/>
    </linearGradient>
    <radialGradient id="radial-gradient" cx="0.03" cy="0.032" r="1.166" gradientTransform="translate(0 0)" gradientUnits="objectBoundingBox">
      <stop offset="0" stop-color="#fff" stop-opacity="0.102"/>
      <stop offset="1" stop-color="#fff" stop-opacity="0"/>
    </radialGradient>
  </defs>
  <g id="Group_20011" data-name="Group 20011" transform="translate(-1450 -6370)">
    <rect id="Rectangle_1822" data-name="Rectangle 1822" width="86" height="86" rx="24" transform="translate(1450 6370)" fill="#fafbfe"/>
    <g id="g72" transform="translate(1466.937 6384.458)">
      <path id="path24" d="M40.868,57.488H4.541A4.553,4.553,0,0,1,0,52.949V4.539A4.553,4.553,0,0,1,4.541,0H52.978a4.553,4.553,0,0,1,4.541,4.539V40.847L47.68,47.654Z" fill="#f4b400"/>
      <path id="Path_4196" data-name="Path 4196" d="M1739.712,1044.376a13.607,13.607,0,0,0-.015,19.251l.008.008,2.823,2.829v10.246l12.109,12.1h6.811l16.65-16.641v-8.665l-19.125-19.115A13.625,13.625,0,0,0,1739.712,1044.376Z" transform="translate(-1720.58 -1031.325)" fill="url(#linear-gradient)"/>
      <g id="g38" transform="translate(40.869 40.847)">
        <g id="g34" opacity="0.2">
          <path id="path32_1_" d="M4686.67,4700.79v-12.1a4.54,4.54,0,0,1,4.538-4.539h12.112Z" transform="translate(-4686.67 -4684.148)" fill="#3e2723"/>
        </g>
        <path id="path36" d="M4686.67,4700.79v-12.1a4.54,4.54,0,0,1,4.538-4.539h12.112Z" transform="translate(-4686.67 -4684.148)" fill="#fada80"/>
      </g>
      <path id="Path_4197" data-name="Path 4197" d="M4691.214,4684.148a4.54,4.54,0,0,0-4.539,4.539v.375a4.538,4.538,0,0,1,4.542-4.535h11.731l.377-.379h-12.111Z" transform="translate(-4645.807 -4643.302)" fill="rgba(255,255,255,0.2)"/>
      <g id="g56" transform="translate(15.137 9.077)">
        <g id="g50" transform="translate(0)">
          <path id="path46" d="M1749.433,1040.92a13.613,13.613,0,0,0-6.811,25.4v10.9h3.027v3.026h8.325v-3.026H1757v-11.373a13.614,13.614,0,0,0-7.568-24.935Zm4.541,33.283h-8.325v-3.026h8.325Zm0-10.1v4.051h-8.325v-3.726a10.6,10.6,0,1,1,8.325-.325Z" transform="translate(-1735.81 -1040.92)" fill="#3e2723" opacity="0.1"/>
          <path id="path48" d="M1749.433,1040.92a13.613,13.613,0,0,0-6.811,25.4v10.9h3.027v3.026h8.325v-3.026H1757v-11.373a13.614,13.614,0,0,0-7.568-24.935Zm4.541,33.283h-8.325v-3.026h8.325Zm0-10.1v4.051h-8.325v-3.726a10.6,10.6,0,1,1,8.325-.325Z" transform="translate(-1735.81 -1040.92)" fill="#f1f1f1"/>
        </g>
        <path id="path52" d="M1745.648,1074.581h8.325v-.378h-8.325Zm0-6.052h8.325v-.378h-8.325Zm0-4.1a10.6,10.6,0,0,1-6.8-9.739c0,.076-.007.151-.007.231a10.611,10.611,0,0,0,6.811,9.89Zm8.325-.325v.378a10.6,10.6,0,0,0,6.055-9.565c0-.076,0-.148-.008-.223A10.592,10.592,0,0,1,1753.974,1064.1Zm-4.541-23.18a13.62,13.62,0,0,0-13.623,13.616c0,.053,0,.106,0,.162a13.621,13.621,0,0,1,27.238,0c0-.057,0-.11,0-.166A13.62,13.62,0,0,0,1749.433,1040.92Z" transform="translate(-1735.81 -1040.92)" fill="rgba(255,255,255,0.4)"/>
        <path id="path54" d="M1742.619,1410.275a13.61,13.61,0,0,1-6.808-11.626c0,.072,0,.144,0,.216a13.6,13.6,0,0,0,6.811,11.789Zm3.027,5.231h8.325v-.378h-8.325Zm3.784-27.231a10.6,10.6,0,0,1,10.588,10.366c0-.053.008-.1.008-.155a10.6,10.6,0,0,0-21.191,0c0,.049,0,.1.007.147A10.6,10.6,0,0,1,1749.43,1388.275Zm4.541,33.282H1757v-.378h-3.027Zm9.078-22.9a13.589,13.589,0,0,1-6.051,11.153v.378a13.594,13.594,0,0,0,6.054-11.32C1763.053,1398.793,1763.05,1398.725,1763.05,1398.653Zm-17.4,22.526h-3.027v.378h3.027Zm0,3.4h8.325v-.378h-8.325Z" transform="translate(-1735.808 -1384.871)" fill="rgba(191,54,12,0.1)"/>
      </g>
      <g id="g68">
        <path id="path64" d="M52.978,0H4.541A4.553,4.553,0,0,0,0,4.539v.378A4.553,4.553,0,0,1,4.541.378H52.978a4.553,4.553,0,0,1,4.541,4.539V4.539A4.553,4.553,0,0,0,52.978,0Z" fill="rgba(255,255,255,0.2)"/>
        <path id="path66" d="M4.541,4700.416A4.553,4.553,0,0,1,0,4695.877v.38a4.555,4.555,0,0,0,4.541,4.538H40.869l16.65-16.642H57.14l-16.272,16.263Z" transform="translate(0 -4643.307)" fill="rgba(191,54,12,0.1)"/>
      </g>
    </g>
    <path id="path74" d="M40.868,57.488H4.541A4.553,4.553,0,0,1,0,52.949V4.539A4.553,4.553,0,0,1,4.541,0H52.978a4.553,4.553,0,0,1,4.541,4.539V40.847Z" transform="translate(1466.937 6384.458)" fill="url(#radial-gradient)"/>
  </g>
</svg>
