<svg id="_1" data-name="1" xmlns="http://www.w3.org/2000/svg" width="19.722" height="20.053" viewBox="0 0 19.722 20.053">
  <path id="Path_25469" data-name="Path 25469" d="M-3723.335,626.492h0l-12.825-.039a1.359,1.359,0,0,1-1.353-1.362l.038-12.823a1.36,1.36,0,0,1,1.358-1.354h0l12.824.038a1.361,1.361,0,0,1,1.354,1.363l-.039,12.823A1.36,1.36,0,0,1-3723.335,626.492Zm-12.785-14.578a.359.359,0,0,0-.358.358l-.038,12.823a.359.359,0,0,0,.357.358l12.823.039h0a.359.359,0,0,0,.357-.358l.039-12.823a.36.36,0,0,0-.357-.359l-12.824-.038Z" transform="translate(3739.587 -608.844)" fill="#5b5b5b"/>
  <path id="Path_25470" data-name="Path 25470" d="M-3726.742,622.635h0l-5.985-.017a.925.925,0,0,1-.656-.275.92.92,0,0,1-.27-.657l.018-5.985a.924.924,0,0,1,.274-.657.921.921,0,0,1,.654-.269h0l5.985.017a.931.931,0,0,1,.926.933l-.018,5.985A.929.929,0,0,1-3726.742,622.635Zm-5.915-1.017,5.843.017.018-5.843-5.843-.017Zm-.054-5.843Z" transform="translate(3739.587 -608.844)" fill="#5b5b5b"/>
  <rect id="Rectangle_6535" data-name="Rectangle 6535" width="1" height="2.572" transform="translate(9.361 17.48)" fill="#5b5b5b"/>
  <rect id="Rectangle_6536" data-name="Rectangle 6536" width="1" height="2.572" transform="translate(11.505 17.48)" fill="#5b5b5b"/>
  <rect id="Rectangle_6537" data-name="Rectangle 6537" width="1" height="2.572" transform="translate(13.649 17.48)" fill="#5b5b5b"/>
  <rect id="Rectangle_6538" data-name="Rectangle 6538" width="1" height="2.572" transform="translate(15.793 17.48)" fill="#5b5b5b"/>
  <rect id="Rectangle_6539" data-name="Rectangle 6539" width="1" height="2.572" transform="translate(2.93 17.48)" fill="#5b5b5b"/>
  <rect id="Rectangle_6540" data-name="Rectangle 6540" width="1" height="2.572" transform="translate(5.074 17.48)" fill="#5b5b5b"/>
  <rect id="Rectangle_6541" data-name="Rectangle 6541" width="1" height="2.572" transform="translate(7.218 17.48)" fill="#5b5b5b"/>
  <rect id="Rectangle_6542" data-name="Rectangle 6542" width="1" height="2.573" transform="translate(9.361)" fill="#5b5b5b"/>
  <rect id="Rectangle_6543" data-name="Rectangle 6543" width="1" height="2.573" transform="translate(11.505)" fill="#5b5b5b"/>
  <rect id="Rectangle_6544" data-name="Rectangle 6544" width="1" height="2.573" transform="translate(13.649)" fill="#5b5b5b"/>
  <rect id="Rectangle_6545" data-name="Rectangle 6545" width="1" height="2.573" transform="translate(15.793)" fill="#5b5b5b"/>
  <rect id="Rectangle_6546" data-name="Rectangle 6546" width="1" height="2.573" transform="translate(2.93)" fill="#5b5b5b"/>
  <rect id="Rectangle_6547" data-name="Rectangle 6547" width="1" height="2.573" transform="translate(5.074)" fill="#5b5b5b"/>
  <rect id="Rectangle_6548" data-name="Rectangle 6548" width="1" height="2.573" transform="translate(7.218)" fill="#5b5b5b"/>
  <rect id="Rectangle_6549" data-name="Rectangle 6549" width="2.573" height="1" transform="translate(0 9.361)" fill="#5b5b5b"/>
  <rect id="Rectangle_6550" data-name="Rectangle 6550" width="2.573" height="1" transform="translate(0 7.217)" fill="#5b5b5b"/>
  <rect id="Rectangle_6551" data-name="Rectangle 6551" width="2.573" height="1" transform="translate(0 5.074)" fill="#5b5b5b"/>
  <rect id="Rectangle_6552" data-name="Rectangle 6552" width="2.573" height="1" transform="translate(0 2.93)" fill="#5b5b5b"/>
  <rect id="Rectangle_6553" data-name="Rectangle 6553" width="2.573" height="1" transform="translate(0 15.793)" fill="#5b5b5b"/>
  <rect id="Rectangle_6554" data-name="Rectangle 6554" width="2.573" height="1" transform="translate(0 13.648)" fill="#5b5b5b"/>
  <rect id="Rectangle_6555" data-name="Rectangle 6555" width="2.573" height="1" transform="translate(0 11.504)" fill="#5b5b5b"/>
  <rect id="Rectangle_6556" data-name="Rectangle 6556" width="2.572" height="1" transform="translate(17.15 9.361)" fill="#5b5b5b"/>
  <rect id="Rectangle_6557" data-name="Rectangle 6557" width="2.572" height="1" transform="translate(17.15 7.217)" fill="#5b5b5b"/>
  <rect id="Rectangle_6558" data-name="Rectangle 6558" width="2.572" height="1" transform="translate(17.15 5.074)" fill="#5b5b5b"/>
  <rect id="Rectangle_6559" data-name="Rectangle 6559" width="2.572" height="1" transform="translate(17.15 2.93)" fill="#5b5b5b"/>
  <rect id="Rectangle_6560" data-name="Rectangle 6560" width="2.572" height="1" transform="translate(17.15 15.793)" fill="#5b5b5b"/>
  <rect id="Rectangle_6561" data-name="Rectangle 6561" width="2.572" height="1" transform="translate(17.15 13.648)" fill="#5b5b5b"/>
  <rect id="Rectangle_6562" data-name="Rectangle 6562" width="2.572" height="1" transform="translate(17.15 11.504)" fill="#5b5b5b"/>
</svg>
