<svg xmlns="http://www.w3.org/2000/svg" width="20.803" height="12.144" viewBox="0 0 20.803 12.144">
  <path id="_2" data-name="2" d="M1257.119,1016.871a.824.824,0,1,1,.823-.825h0a.825.825,0,0,1-.823.825m-9.076,0a.824.824,0,1,1,.824-.825h0a.825.825,0,0,1-.824.825m9.367-4.946,1.649-2.842a.34.34,0,1,0-.591-.338v0l-1.667,2.876a10.061,10.061,0,0,0-4.216-.91,10.225,10.225,0,0,0-4.225.9l-1.665-2.876a.341.341,0,0,0-.593.335l1.64,2.842a9.709,9.709,0,0,0-5.031,7.761h19.722a9.658,9.658,0,0,0-5.023-7.753" transform="translate(-1242.17 -1008.033)" fill="none" stroke="#5b5b5b" stroke-width="1"/>
</svg>
