<svg id="_3" data-name="3" xmlns="http://www.w3.org/2000/svg" width="13.798" height="28.239" viewBox="0 0 13.798 28.239">
  <g id="Group_20884" data-name="Group 20884" transform="translate(1.608 1.54)">
    <path id="Path_25429" data-name="Path 25429" d="M-3736.936,493.565l-4.38,10.657.231.095,4.419-10.752Z" transform="translate(3741.316 -479.238)" fill="#5b5b5b"/>
    <path id="Path_25430" data-name="Path 25430" d="M-3734.389,488.026l3.573-8.694-.231-.095-3.612,8.788Z" transform="translate(3741.316 -479.238)" fill="#5b5b5b"/>
  </g>
  <g id="Group_20885" data-name="Group 20885">
    <path id="Path_25431" data-name="Path 25431" d="M-3730.4,505.937h-11.24a1.281,1.281,0,0,1-1.279-1.279V478.977a1.281,1.281,0,0,1,1.279-1.279h11.24a1.281,1.281,0,0,1,1.279,1.279v25.681A1.281,1.281,0,0,1-3730.4,505.937Zm-11.24-27.239a.283.283,0,0,0-.279.279v25.681a.283.283,0,0,0,.279.279h11.24a.283.283,0,0,0,.279-.279V478.977a.283.283,0,0,0-.279-.279Z" transform="translate(3742.924 -477.698)" fill="#5b5b5b"/>
  </g>
  <g id="Group_20886" data-name="Group 20886" transform="translate(1.648 1.512)">
    <path id="Path_25432" data-name="Path 25432" d="M-3740.633,480.495a.644.644,0,0,1-.643-.643.643.643,0,0,1,.643-.642.643.643,0,0,1,.642.642A.643.643,0,0,1-3740.633,480.495Zm0-1.135a.492.492,0,0,0-.492.492.492.492,0,0,0,.492.493.493.493,0,0,0,.492-.493A.493.493,0,0,0-3740.633,479.36Z" transform="translate(3741.276 -479.21)" fill="#5b5b5b"/>
  </g>
  <g id="Group_20887" data-name="Group 20887" transform="translate(3.989 11.395)">
    <path id="Path_25433" data-name="Path 25433" d="M-3738.585,491.94a1.536,1.536,0,0,1-.35-1.171v-.029c0-1.02.423-1.646,1.17-1.646a1.2,1.2,0,0,1,.773.276l-.246.4a.843.843,0,0,0-.54-.216c-.436,0-.635.449-.647.959a.822.822,0,0,1,.634-.277.88.88,0,0,1,.92.942v.008a.986.986,0,0,1-1.006,1.028A.957.957,0,0,1-3738.585,491.94Zm1.217-.73V491.2a.5.5,0,0,0-.522-.544.507.507,0,0,0-.523.544v.008a.518.518,0,0,0,.532.561A.509.509,0,0,0-3737.368,491.21Z" transform="translate(3738.935 -489.094)" fill="#5b5b5b"/>
    <path id="Path_25434" data-name="Path 25434" d="M-3736.408,491.59h.553v.574h-.553Z" transform="translate(3738.935 -489.094)" fill="#5b5b5b"/>
    <path id="Path_25435" data-name="Path 25435" d="M-3734.088,491.508h-1.339l-.07-.363,1.439-2.021h.444v1.965h.376v.419h-.376v.656h-.474Zm0-.419v-1.213l-.856,1.213Z" transform="translate(3738.935 -489.094)" fill="#5b5b5b"/>
  </g>
</svg>
