<svg xmlns="http://www.w3.org/2000/svg" width="17.017" height="28.092" viewBox="0 0 17.017 28.092">
  <g id="_4" data-name="4" transform="translate(16.709) rotate(90)">
    <path id="Path_25471" data-name="Path 25471" d="M26.7,12.076h0L1.354,12.048a1.467,1.467,0,0,1-1.035-.406A1.058,1.058,0,0,1,0,10.892L.038,1.148A1.255,1.255,0,0,1,1.4,0h0L26.738.029a1.469,1.469,0,0,1,1.036.407,1.058,1.058,0,0,1,.318.749l-.038,9.744A1.254,1.254,0,0,1,26.7,12.076ZM1.4,1c-.238,0-.358.122-.358.152L1,10.9a.446.446,0,0,0,.356.152l25.339.028h0c.239,0,.358-.122.358-.15l.038-9.745a.442.442,0,0,0-.356-.152L1.4,1Z" transform="translate(0 2.161)" fill="#5b5b5b"/>
    <rect id="Rectangle_6563" data-name="Rectangle 6563" width="1" height="2.573" transform="translate(13.365 14.136)" fill="#5b5b5b"/>
    <rect id="Rectangle_6564" data-name="Rectangle 6564" width="1" height="2.573" transform="translate(16.521 14.136)" fill="#5b5b5b"/>
    <rect id="Rectangle_6565" data-name="Rectangle 6565" width="1" height="2.573" transform="translate(19.676 14.136)" fill="#5b5b5b"/>
    <rect id="Rectangle_6566" data-name="Rectangle 6566" width="1" height="2.573" transform="translate(22.832 14.136)" fill="#5b5b5b"/>
    <rect id="Rectangle_6567" data-name="Rectangle 6567" width="1" height="2.573" transform="translate(3.899 14.136)" fill="#5b5b5b"/>
    <rect id="Rectangle_6568" data-name="Rectangle 6568" width="1" height="2.573" transform="translate(7.055 14.136)" fill="#5b5b5b"/>
    <rect id="Rectangle_6569" data-name="Rectangle 6569" width="1" height="2.573" transform="translate(10.21 14.136)" fill="#5b5b5b"/>
    <rect id="Rectangle_6570" data-name="Rectangle 6570" width="1" height="2.572" transform="translate(13.365 -0.308)" fill="#5b5b5b"/>
    <rect id="Rectangle_6571" data-name="Rectangle 6571" width="1" height="2.572" transform="translate(16.521 -0.308)" fill="#5b5b5b"/>
    <rect id="Rectangle_6572" data-name="Rectangle 6572" width="1" height="2.572" transform="translate(19.676 -0.308)" fill="#5b5b5b"/>
    <rect id="Rectangle_6573" data-name="Rectangle 6573" width="1" height="2.572" transform="translate(22.832 -0.308)" fill="#5b5b5b"/>
    <rect id="Rectangle_6574" data-name="Rectangle 6574" width="1" height="2.572" transform="translate(3.899 -0.308)" fill="#5b5b5b"/>
    <rect id="Rectangle_6575" data-name="Rectangle 6575" width="1" height="2.572" transform="translate(7.055 -0.308)" fill="#5b5b5b"/>
    <rect id="Rectangle_6576" data-name="Rectangle 6576" width="1" height="2.572" transform="translate(10.21 -0.308)" fill="#5b5b5b"/>
  </g>
</svg>
