<svg xmlns="http://www.w3.org/2000/svg" width="23.528" height="16.018" viewBox="0 0 23.528 16.018">
  <path id="_5" data-name="5" d="M-3643.033,499.827h-16.9a3.326,3.326,0,0,1-3.316-3.316v-9.386a3.32,3.32,0,0,1,3.316-3.316h16.9a3.325,3.325,0,0,1,3.316,3.315v9.387A3.327,3.327,0,0,1-3643.033,499.827Zm-16.9-15.018a2.319,2.319,0,0,0-2.316,2.316v9.386a2.323,2.323,0,0,0,2.317,2.316h16.894a2.325,2.325,0,0,0,2.317-2.317v-9.385a2.323,2.323,0,0,0-2.316-2.316Zm9.865,10.09h-2.355a3.089,3.089,0,0,1-3.077-3.075,3.067,3.067,0,0,1,.9-2.181,3.056,3.056,0,0,1,2.178-.907h2.358a3.062,3.062,0,0,1,2.184.909,3.062,3.062,0,0,1,.9,2.182A3.086,3.086,0,0,1-3650.065,494.9Zm-.009-1a2.076,2.076,0,0,0,2.09-2.075,2.066,2.066,0,0,0-.605-1.474,2.066,2.066,0,0,0-1.47-.614h-2.36a2.085,2.085,0,0,0-2.078,2.086,2.087,2.087,0,0,0,2.078,2.077Zm5.867-3.224a2.38,2.38,0,0,1-2.377-2.378,2.379,2.379,0,0,1,2.377-2.377h0a2.383,2.383,0,0,1,2.378,2.377A2.381,2.381,0,0,1-3644.207,490.675Zm0-3.755a1.378,1.378,0,0,0-1.376,1.377,1.378,1.378,0,0,0,1.377,1.378,1.379,1.379,0,0,0,1.378-1.378A1.381,1.381,0,0,0-3644.208,486.92Z" transform="translate(3663.246 -483.809)" fill="#5b5b5b"/>
</svg>
