<svg xmlns="http://www.w3.org/2000/svg" width="13.798" height="28.239" viewBox="0 0 13.798 28.239">
  <g id="Group_21191" data-name="Group 21191" transform="translate(-185 -1216.084)">
    <g id="Group_21082" data-name="Group 21082" transform="translate(185 1216.084)">
      <g id="Group_20885" data-name="Group 20885">
        <path id="Path_25431" data-name="Path 25431" d="M-3730.4,505.937h-11.24a1.281,1.281,0,0,1-1.279-1.279V478.977a1.281,1.281,0,0,1,1.279-1.279h11.24a1.281,1.281,0,0,1,1.279,1.279v25.681A1.281,1.281,0,0,1-3730.4,505.937Zm-11.24-27.239a.283.283,0,0,0-.279.279v25.681a.283.283,0,0,0,.279.279h11.24a.283.283,0,0,0,.279-.279V478.977a.283.283,0,0,0-.279-.279Z" transform="translate(3742.924 -477.698)" fill="#5b5b5b"/>
      </g>
      <g id="Group_20886" data-name="Group 20886" transform="translate(1.648 1.512)">
        <path id="Path_25432" data-name="Path 25432" d="M-3740.633,480.495a.644.644,0,0,1-.643-.643.643.643,0,0,1,.643-.642.643.643,0,0,1,.642.642A.643.643,0,0,1-3740.633,480.495Zm0-1.135a.492.492,0,0,0-.492.492.492.492,0,0,0,.492.493.493.493,0,0,0,.492-.493A.493.493,0,0,0-3740.633,479.36Z" transform="translate(3741.276 -479.21)" fill="#5b5b5b"/>
      </g>
    </g>
    <path id="ic_perm_identity_24px" d="M8.328,5.028A1.136,1.136,0,1,1,7.192,6.164,1.136,1.136,0,0,1,8.328,5.028m0,4.869c1.607,0,3.3.79,3.3,1.136v.6h-6.6v-.6c0-.346,1.693-1.136,3.3-1.136m0-5.9a2.164,2.164,0,1,0,2.164,2.164A2.163,2.163,0,0,0,8.328,4Zm0,4.869C6.884,8.869,4,9.594,4,11.033v1.623h8.656V11.033C12.656,9.594,9.773,8.869,8.328,8.869Z" transform="translate(183 1222.092)" fill="#5b5b5b"/>
  </g>
</svg>
