<svg xmlns="http://www.w3.org/2000/svg" width="13.799" height="26.771" viewBox="0 0 13.799 26.771">
  <g id="_7" data-name="7" transform="translate(0 26.771) rotate(-90)">
    <path id="Path_25467" data-name="Path 25467" d="M23.714,13.8H1.279A1.281,1.281,0,0,1,0,12.52V1.279A1.281,1.281,0,0,1,1.279,0H23.714a1.281,1.281,0,0,1,1.279,1.279V12.52A1.281,1.281,0,0,1,23.714,13.8ZM1.279,1A.283.283,0,0,0,1,1.279V12.52a.283.283,0,0,0,.279.279H23.714a.283.283,0,0,0,.279-.279V1.279A.283.283,0,0,0,23.714,1Z" transform="translate(0 0)" fill="#5b5b5b"/>
    <rect id="Rectangle_6528" data-name="Rectangle 6528" width="1" height="8.832" transform="translate(3.515 2.483)" fill="#5b5b5b"/>
    <rect id="Rectangle_6529" data-name="Rectangle 6529" width="1" height="8.832" transform="translate(7.03 2.483)" fill="#5b5b5b"/>
    <rect id="Rectangle_6530" data-name="Rectangle 6530" width="1" height="8.832" transform="translate(10.545 2.483)" fill="#5b5b5b"/>
    <rect id="Rectangle_6531" data-name="Rectangle 6531" width="1" height="8.832" transform="translate(14.06 2.483)" fill="#5b5b5b"/>
    <rect id="Rectangle_6532" data-name="Rectangle 6532" width="1" height="8.832" transform="translate(17.575 2.483)" fill="#5b5b5b"/>
    <rect id="Rectangle_6533" data-name="Rectangle 6533" width="1" height="8.832" transform="translate(21.09 2.483)" fill="#5b5b5b"/>
    <rect id="Rectangle_6534" data-name="Rectangle 6534" width="2" height="4.724" transform="translate(24.771 4.538)" fill="#5b5b5b"/>
  </g>
</svg>
