<svg xmlns="http://www.w3.org/2000/svg" width="17.5" height="12.372" viewBox="0 0 17.5 12.372">
  <path id="_8" data-name="8" d="M7.04,14.826a5.239,5.239,0,0,1,0-7.42L8.283,8.649A3.457,3.457,0,0,0,7.25,11.116a3.522,3.522,0,0,0,1.024,2.476Zm7.42,0a5.239,5.239,0,0,0,0-7.42L13.218,8.649a3.457,3.457,0,0,1,1.033,2.467,3.522,3.522,0,0,1-1.024,2.476Zm-3.71-5.46a1.75,1.75,0,1,0,1.75,1.75A1.755,1.755,0,0,0,10.75,9.366Zm7,1.75a6.948,6.948,0,0,1-2.056,4.944L16.936,17.3a8.745,8.745,0,0,0,0-12.372L15.694,6.173A6.948,6.948,0,0,1,17.75,11.116ZM5.806,6.173,4.564,4.93a8.745,8.745,0,0,0,0,12.372L5.806,16.06a6.971,6.971,0,0,1,0-9.887Z" transform="translate(-2 -4.93)" fill="#5b5b5b"/>
</svg>
