<svg xmlns="http://www.w3.org/2000/svg" xmlns:xlink="http://www.w3.org/1999/xlink" width="173" height="173" viewBox="0 0 173 173">
  <defs>
    <clipPath id="clip-path">
      <rect id="Rectangle_6403" data-name="Rectangle 6403" width="173" height="173" transform="translate(0 -0.001)" fill="none"/>
    </clipPath>
  </defs>
  <g id="Group_20480" data-name="Group 20480" transform="translate(-7371 10836)">
    <g id="Group_20479" data-name="Group 20479" transform="translate(7371 -10835.999)">
      <g id="Group_20478" data-name="Group 20478" transform="translate(0 0)" clip-path="url(#clip-path)">
        <path id="Path_19332" data-name="Path 19332" d="M1.211,224.7H6.06a1.3,1.3,0,0,0,1.213-1.212V211.067H18.182v12.425a1.3,1.3,0,0,0,1.212,1.212h5.152a1.3,1.3,0,0,0,1.213-1.212V205.208l-7.576-24.344a.906.906,0,0,0-.909-.909H8.484a.787.787,0,0,0-.909.707v.2L0,205.208v18.586c0,.606.606.909,1.211.909m6.667-20.4,4.848-16.465L17.576,204.3Z" transform="translate(0 -52.707)" fill="#fff"/>
        <path id="Path_19333" data-name="Path 19333" d="M93.544,179.963H71.018a1.229,1.229,0,0,0-1.213,1.212v4.848a1.3,1.3,0,0,0,1.213,1.213h14.95L68.9,217.944V223.7a1.3,1.3,0,0,0,1.212,1.212H93.544a1.3,1.3,0,0,0,1.212-1.212v-4.848a1.3,1.3,0,0,0-1.212-1.212H77.988L94.756,186.63v-5.455a1.393,1.393,0,0,0-1.212-1.212" transform="translate(-20.21 -52.715)" fill="#fff"/>
        <path id="Path_19334" data-name="Path 19334" d="M151,179.1h-.909c-6.97,0-12.728,5.455-12.728,12.121v21.314a12.674,12.674,0,0,0,12.728,12.424H151c6.97,0,12.728-5.454,12.728-12.121V191.226c0-6.666-5.758-12.121-12.728-12.121m5.152,12.526v21.314A5.2,5.2,0,0,1,150.9,218.1h-.808a5.372,5.372,0,0,1-5.455-5.152V191.63a5.2,5.2,0,0,1,5.253-5.151h.808a4.829,4.829,0,0,1,5.455,4.242Z" transform="translate(-40.294 -52.463)" fill="#fff"/>
        <path id="Path_19335" data-name="Path 19335" d="M231.718,179.963h-6.364c-.606,0-.909.3-.909.606L219.6,195.216l-4.849-14.546c0-.3-.606-.606-.909-.606h-6.364a1.505,1.505,0,0,0-1.212,1.212V223.9a1.507,1.507,0,0,0,1.212,1.213h5.152a1.3,1.3,0,0,0,1.213-1.213V196.529l2.728,7.576c.3.3.606.606.909.606h4.243c.3,0,.909-.3.909-.606l2.727-7.576V223.9a1.3,1.3,0,0,0,1.213,1.213h5.152a1.3,1.3,0,0,0,1.212-1.213V181.276a1.2,1.2,0,0,0-1.213-1.313" transform="translate(-60.503 -52.715)" fill="#fff"/>
        <path id="Path_19336" data-name="Path 19336" d="M137.412,45.758v-10.4l8.99-6.869V57.678ZM67.916,60.3l-3.03,1.818v8.889L60.34,75.052V51.314Zm34.748,27.778,4.848,2.828,7.173-4.141,6.161,4.95-17.576,10.1-9.091-5.253ZM81.148,71.516V68.89L99.33,77.779v8.384l1.616.909-8.485,8.384L78.421,87.376,77.006,73.94Zm-1.919-8.283V70.4l-6.263,3.637L66.7,70.4V63.234L72.966,59.6Zm18.99-45.657-6.566-3.839L77.31,22.021v3.94l-14.444-.3,40.4-23.334L105.9,3.839Zm-19.7,42.93L86.1,43.536l5.656,3.233,3.637-2.02,8.182,29.6-3.132,1.818L81.249,66.769V62.022Zm25.556-23.131L91.654,44.546,79.229,37.374V23.131l12.425-7.172,12.425,7.172Zm-19.8,5.152L76.8,59.5l-3.838-2.222-3.434,2.02L60.239,48.183V27.475l17.07.3V38.485Zm31.314,35.253,12.526-6.869,4.949,2.829,4.849-2.829,7.677,6.263-23.03,13.333-6.97-5.556Zm21.515-8.485-3.939,2.324-3.94-2.324V64.749l3.94-2.324,3.939,2.324ZM119.634,48.183l-9.6,25.252-2.526-1.515-2.323,1.314-8.182-29.6L106,38.485V31.717l10.808,4.142V46.465Zm1.717,1.01,5.657,3.333,2.728-1.616,2.121,10-4.748,2.728v5.656l-12.526,6.869-2.928-1.717Zm-2.727-3.738v-9.7l8.384-4.848,8.385,4.848v9.7L127.008,50.3ZM101.25,77.88l6.263-3.636,6.263,3.636v7.172l-6.263,3.637-6.263-3.637Zm32.729-17.172L131.654,49.9l4.546-2.626L146.5,60.91V75.355L139.13,69.4V63.537ZM136.2,33.94l-8.182-4.747L126.1,15.455l19.6,11.313Zm-18.587.2L106.1,29.7V22.021l-6.06-3.535,7.778-13.738,16.263,9.394L126.2,29.294ZM66.2,72.324l6.768,3.94,2.121-1.212L76.3,86.163l-15.657-8.99ZM103.371,0,58.421,25.96h-.1V77.981l44.546,25.758.505.3,44.95-25.96h.1V26.061Z" transform="translate(-17.107 0.073)" fill="#fff"/>
      </g>
    </g>
  </g>
</svg>
