<svg xmlns="http://www.w3.org/2000/svg" width="142" height="144.61" viewBox="0 0 142 144.61">
  <g id="Group_20006" data-name="Group 20006" transform="translate(0 0.866)">
    <text id="AzomCare" transform="translate(0 137.744)" fill="#1a1818" font-size="32" font-family="D-DINCondensed-Bold, D-DIN DINCondensed" letter-spacing="0.03em" font-weight="700"><tspan x="0" y="0">AZOM</tspan><tspan y="0" font-family="D-DIN" font-weight="400">CARE</tspan></text>
    <g id="Group_19184" data-name="Group 19184" transform="translate(33.039)">
      <g id="Group_19182" data-name="Group 19182" transform="translate(9.209 10.661)">
        <path id="Path_15847" data-name="Path 15847" d="M3334.856,4687.594v-6.432l5.581-4.254v18.117Zm-43.194,9.057-1.9,1.1v5.5l-2.851,2.507v-14.728Zm21.6,17.254,3.015,1.74,4.484-2.589,3.793,3.055-10.883,6.283-5.68-3.278Zm-13.349-10.3v-1.639l11.289,5.55v5.194l.981.567-5.271,5.21-8.734-5.042-.9-8.323Zm-1.2-5.167v4.473l-3.874,2.235-3.873-2.235v-4.473l3.873-2.236Zm11.807-28.354-4.084-2.357-8.894,5.135v2.43l-8.987-.2,25.119-14.5,1.656.955Zm-12.274,26.7,4.67-10.546,3.52,2.032,2.239-1.291,5.1,18.39-1.925,1.112-11.935-5.8v-2.932Zm15.881-14.343-7.691,4.441-7.69-4.441v-8.88l7.69-4.441,7.691,4.441Zm-12.254,3.194-4.672,10.546-2.363-1.364-2.133,1.231-5.793-6.891v-12.862l10.63.2v6.637Zm19.482,21.908,7.792-4.263,3.057,1.763,2.987-1.722,4.788,3.886-14.307,8.26-4.317-3.478Zm13.309-5.307-2.46,1.42-2.462-1.42v-2.841l2.462-1.42,2.46,1.42Zm-10.815-13.093-5.976,15.7-1.594-.92-1.434.829-5.1-18.392,5.586-3.225v-4.21l6.693,2.569v6.594Zm1.056.608,3.535,2.041,1.722-.994,1.347,6.189-2.967,1.712v3.542l-7.792,4.263-1.821-1.052Zm-1.68-2.358v-6.021l5.215-3.011,5.213,3.011v6.021l-5.213,3.01Zm-10.818,20.154,3.873-2.234,3.874,2.234v4.473l-3.874,2.236-3.873-2.236Zm20.31-10.667-1.46-6.713,2.809-1.624,6.372,8.484v9l-4.569-3.707V4698.7Zm1.374-16.646-5.115-2.952-1.2-8.553,12.181,7.035Zm-11.576.159-7.184-2.757v-4.771l-3.768-2.175,4.811-8.543,10.08,5.822,1.317,9.39Zm-31.9,23.707,4.229,2.44,1.308-.755.744,6.92-9.7-5.6Zm23.064-44.9-27.913,16.117-.05.028v32.293l27.664,15.971.3.173,27.914-16.116.051-.028v-32.293Z" transform="translate(-3285.71 -4659.2)"/>
      </g>
      <g id="Group_19183" data-name="Group 19183" transform="translate(0 0)">
        <line id="Line_332" data-name="Line 332" y1="11.406" transform="translate(74.467 37.291)" fill="none" stroke="#000" stroke-miterlimit="10" stroke-width="1.5"/>
        <path id="Path_15848" data-name="Path 15848" d="M3349.965,4682.24v-13.371l-37.233-21.5-37.234,21.5v42.994l37.234,21.5,37.233-21.5v-13.252" transform="translate(-3275.498 -4647.373)" fill="none" stroke="#000" stroke-miterlimit="10" stroke-width="1.5"/>
        <line id="Line_333" data-name="Line 333" x2="11.406" transform="translate(68.764 42.994)" fill="none" stroke="#000" stroke-miterlimit="10" stroke-width="1.5"/>
      </g>
    </g>
  </g>
</svg>
