<svg xmlns="http://www.w3.org/2000/svg" width="344.972" height="66.675" viewBox="0 0 344.972 66.675">
  <g id="Group_20594" data-name="Group 20594" transform="translate(-990.642 -6139.911)">
    <g id="Group_19842" data-name="Group 19842" transform="translate(990.642 6139.936)">
      <path id="Path_17281" data-name="Path 17281" d="M450.927,521.52h11.786v66.651H450.927Z" transform="translate(-450.927 -521.52)"/>
      <path id="Path_17282" data-name="Path 17282" d="M489.8,558.9a26.694,26.694,0,0,1,1.545,9.955q0,10.146-4.151,14.729t-14.106,4.589h-18.06V521.52h18.06q9.754,0,13.909,4.3t4.151,13.667a19.659,19.659,0,0,1-1.634,8.4,11,11,0,0,1-5.607,5.314A10.673,10.673,0,0,1,489.8,558.9ZM466.81,532.142v16.134h5.022q4.157,0,5.8-1.888t1.64-6.128c0-2.962-.547-5.06-1.64-6.281s-3.026-1.837-5.8-1.837Zm11.016,43.227q1.64-2.164,1.64-7.387,0-5.025-1.786-7.247t-5.944-2.218H466.81v19.026h4.926Q476.18,577.542,477.827,575.368Z" transform="translate(-428.943 -521.52)"/>
      <path id="Path_17283" data-name="Path 17283" d="M480.448,561.409h-5.7v26.762H462.872V521.52h18.155q9.86,0,13.96,4.729t4.107,15.168a29.133,29.133,0,0,1-1.837,11.105,12.866,12.866,0,0,1-5.988,6.668l9.948,28.981H488.852Zm-5.7-10.622h6.172c2.39,0,4.03-.788,4.933-2.365s1.354-3.916,1.354-7.005-.432-5.409-1.3-6.954-2.537-2.321-4.984-2.321h-6.172Z" transform="translate(-386.94 -521.52)"/>
      <path id="Path_17284" data-name="Path 17284" d="M500.847,575.229H485.3l-2.7,12.942h-12.37l17.1-66.651H498.92l17,66.651H503.555ZM498.724,564.6l-5.6-27.048L487.516,564.6Z" transform="translate(-347.546 -521.52)"/>
      <path id="Path_17285" data-name="Path 17285" d="M515.372,521.52v66.651H503.491V559.578H490.937v28.593H479.056V521.52h11.881v27.43h12.555V521.52Z" transform="translate(-300.245 -521.52)"/>
      <path id="Path_17286" data-name="Path 17286" d="M487.017,521.52H498.8v66.651H487.017Z" transform="translate(-257.599 -521.52)"/>
      <path id="Path_17287" data-name="Path 17287" d="M538.168,521.52v66.651h-11.88V549.146l-8.506,26.082h-6.376l-8.4-25.8v38.738H491.121V521.52H503l11.588,35.16,11.7-35.16Z" transform="translate(-235.615 -521.52)"/>
    </g>
    <g id="Group_19844" data-name="Group 19844" transform="translate(1307.567 6139.911)">
      <g id="Group_19843" data-name="Group 19843">
        <path id="Path_17288" data-name="Path 17288" d="M500.783,534.712v-13.2h5.638v13.26c0,2.619,1.278,3.865,3.216,3.865,1.964,0,3.217-1.183,3.217-3.776V521.516h5.676v13.1c0,6.331-3.591,9.109-8.925,9.109S500.783,540.917,500.783,534.712Z" transform="translate(-500.783 -521.516)"/>
        <path id="Path_17289" data-name="Path 17289" d="M504.312,521.516h5.613v21.835h-5.613Z" transform="translate(-481.879 -521.516)"/>
      </g>
    </g>
  </g>
</svg>
