<svg xmlns="http://www.w3.org/2000/svg" width="111.866" height="120.912" viewBox="0 0 111.866 120.912">
  <g id="Group_20378" data-name="Group 20378" transform="translate(-121.041 -9319.902)">
    <g id="Group_19184" data-name="Group 19184" transform="translate(121.791 9320.769)">
      <g id="Group_19182" data-name="Group 19182" transform="translate(12.763 14.777)">
        <path id="Path_15847" data-name="Path 15847" d="M3353.826,4698.554v-8.914l7.735-5.9v25.109Zm-59.867,12.553-2.631,1.519v7.615l-3.952,3.476V4703.3Zm29.942,23.913,4.178,2.412,6.215-3.59,5.257,4.235-15.083,8.708-7.873-4.544Zm-18.5-14.271v-2.271l15.646,7.691v7.2l1.359.786-7.306,7.221-12.1-6.988-1.241-11.536Zm-1.667-7.162v6.2l-5.37,3.1-5.368-3.1v-6.2l5.368-3.1Zm16.365-39.3-5.66-3.266-12.328,7.117v3.367l-12.457-.28,34.815-20.1,2.3,1.324Zm-17.012,37,6.473-14.616,4.879,2.815,3.1-1.789,7.069,25.488-2.667,1.542-16.542-8.042v-4.062Zm22.012-19.88-10.66,6.156-10.659-6.156V4679.1l10.659-6.155,10.66,6.155Zm-16.984,4.428-6.475,14.617-3.275-1.891-2.957,1.706-8.03-9.551v-17.826l14.733.281v9.2Zm27,30.364,10.8-5.908,4.236,2.443,4.14-2.388,6.637,5.386-19.83,11.448-5.983-4.819Zm18.446-7.355-3.409,1.968-3.412-1.968v-3.937l3.412-1.968,3.409,1.968Zm-14.99-18.146-8.283,21.76-2.209-1.275-1.987,1.148-7.07-25.49,7.742-4.47v-5.836l9.276,3.562v9.139Zm1.463.843,4.9,2.829,2.387-1.378,1.866,8.579-4.111,2.373v4.909l-10.8,5.907-2.523-1.458Zm-2.329-3.269v-8.345l7.228-4.174,7.227,4.174v8.345l-7.227,4.172Zm-14.994,27.934,5.368-3.1,5.369,3.1v6.2l-5.369,3.1-5.368-3.1Zm28.149-14.783-2.024-9.3,3.894-2.25,8.831,11.76V4724.1l-6.333-5.138v-5.019Zm1.9-23.071-7.089-4.092-1.665-11.854,16.883,9.749Zm-16.043.22-9.957-3.822v-6.61l-5.222-3.016,6.667-11.841,13.971,8.068,1.825,13.015ZM3292.5,4721.43l5.86,3.381,1.813-1.046,1.032,9.591-13.443-7.761Zm31.966-62.229-38.688,22.338-.07.039v44.757l38.343,22.136.416.24,38.688-22.337.071-.039v-44.757Z" transform="translate(-3285.71 -4659.2)"/>
      </g>
      <g id="Group_19183" data-name="Group 19183" transform="translate(0 0)">
        <line id="Line_332" data-name="Line 332" y1="15.808" transform="translate(103.211 51.685)" fill="none" stroke="#000" stroke-miterlimit="10" stroke-width="1.5"/>
        <path id="Path_15848" data-name="Path 15848" d="M3378.71,4695.7v-18.532l-51.605-29.793-51.606,29.793v59.591l51.606,29.8,51.605-29.8v-18.368" transform="translate(-3275.499 -4647.373)" fill="none" stroke="#000" stroke-miterlimit="10" stroke-width="1.5"/>
        <line id="Line_333" data-name="Line 333" x2="15.808" transform="translate(95.307 59.589)" fill="none" stroke="#000" stroke-miterlimit="10" stroke-width="1.5"/>
      </g>
    </g>
  </g>
</svg>
