<svg id="_512_1" data-name="512_1" xmlns="http://www.w3.org/2000/svg" width="111.115" height="111.115" viewBox="0 0 111.115 111.115">
  <g id="Layer_2_1_">
    <g id="DESIGNED_BY_FREEPIK">
      <rect id="Rectangle_6384" data-name="Rectangle 6384" width="111.115" height="111.115" rx="32" fill="#ffaf5d"/>
      <path id="Path_18696" data-name="Path 18696" d="M546.74,303.139l-4.771.714v-2.491a1.15,1.15,0,0,0-.242-2.274h-.551a1.145,1.145,0,0,0-.36,2.235v2.707c-.079.007-.151.02-.229.033l-1.678.249v-2.569a1,1,0,0,0-.5-1.861h-.478a1,1,0,1,0-.02,2v2.582l-9.51,1.429a5.6,5.6,0,0,0-4.706,5.289,4.723,4.723,0,0,0,4.4,4.9h8.055l.052,11.8-.38.007-5.885.066-11.777.125-5.885.066-2.943.033-1.127.013-.026-2.064-.066-5.885-.125-11.777-.256-23.568-.125-11.777-.066-5.885-.033-2.943-.007-.721c.007-.013-.007-.026,0-.033s.013-.039.02-.066.033-.046.059-.052c.007-.013.026-.007.039-.013l.728-.007,2.943-.033,5.885-.066,11.771-.125,5.885-.066,1.475-.013.734-.007h.177c.02,0,.039.007.066.007a.514.514,0,0,1,.387.315.428.428,0,0,1,.033.131.143.143,0,0,1,.007.052v.184l.007.367.013,1.475.033,2.943.066,5.885.249,18.58a1.931,1.931,0,0,0,3.86,0l.249-18.58.065-5.885.033-2.943.013-1.475.007-.367V263.6l-.013-.315a5.246,5.246,0,0,0-.236-1.311,5.163,5.163,0,0,0-3.788-3.447,5.554,5.554,0,0,0-.662-.1l-.334-.02-.223-.007-.734-.007-1.475-.013-5.885-.066-11.777-.118-5.885-.066-2.943-.026-.741-.007a5.655,5.655,0,0,0-1.409.184,5.513,5.513,0,0,0-3.906,3.847,5.431,5.431,0,0,0-.2,1.416l-.007.754-.033,2.943-.066,5.885-.125,11.771-.249,23.548-.125,11.777-.066,5.885-.013,1.475-.007.734-.007.367v.269l.02.4a6.257,6.257,0,0,0,3.539,5.112,6.155,6.155,0,0,0,1.553.5,5.636,5.636,0,0,0,.806.1l.354.013h.184l1.475.013,2.943.033,5.885.066,11.777.125,5.885.066.734.007.367.007h.288l.216-.007a6.611,6.611,0,0,0,6.22-5.053,7.474,7.474,0,0,0,.151-.852c.013-.144.02-.282.026-.426l.007-.216v-.118l.079-13.868h0v-.1l.026-2.772v-.066a2.822,2.822,0,0,0-.026-.406v-2.949c-.007-.026-.007-.341-.007-.341s.131.275.157.262A5.229,5.229,0,0,0,546.74,303.139Zm-39.094,25.043h0Zm29.145-21.4a.963.963,0,1,1-.964.963h0A.965.965,0,0,1,536.791,306.783Zm-.577,22.015v0Zm.917-.931c.013,0,.02-.007.033-.007l.026.007Z" transform="translate(-468.539 -241.184)" fill="#fff"/>
    </g>
  </g>
</svg>
