<svg xmlns="http://www.w3.org/2000/svg" width="153.916" height="166.94" viewBox="0 0 153.916 166.94">
  <g id="Group_20578" data-name="Group 20578" transform="translate(-25.547 1.732)">
    <g id="Group_20544" data-name="Group 20544" transform="translate(27.047 0)">
      <g id="Group_20520" data-name="Group 20520" transform="translate(0 0)">
        <g id="Group_20519" data-name="Group 20519" transform="translate(0 0)">
          <g id="Group_20515" data-name="Group 20515" transform="translate(0 0)">
            <g id="Group_19184" data-name="Group 19184" transform="translate(0)">
              <g id="Group_19182" data-name="Group 19182" transform="translate(17.507 20.269)">
                <path id="Path_15847" data-name="Path 15847" d="M3379.144,4713.18v-12.227l10.61-8.088v34.443Zm-82.119,17.218-3.609,2.084v10.445l-5.42,4.767v-28Zm41.071,32.8,5.732,3.308,8.525-4.923,7.211,5.809-20.689,11.944-10.8-6.232Zm-25.378-19.576v-3.115l21.462,10.55v9.876l1.864,1.078-10.021,9.905-16.6-9.585-1.7-15.824Zm-2.286-9.823v8.5l-7.366,4.249-7.364-4.249v-8.5l7.364-4.25Zm22.447-53.9-7.764-4.481-16.91,9.763v4.619l-17.086-.385,47.755-27.571,3.149,1.816Zm-23.334,50.753,8.878-20.049,6.692,3.863,4.256-2.454,9.7,34.961-3.659,2.115-22.69-11.03v-5.573Zm30.192-27.269-14.622,8.444-14.622-8.444V4686.5l14.622-8.444,14.622,8.444Zm-23.3,6.073-8.882,20.05-4.493-2.593-4.055,2.341-11.014-13.1V4691.7l20.208.385V4704.7Zm37.039,41.65,14.815-8.1,5.811,3.351,5.678-3.275,9.1,7.388-27.2,15.7-8.207-6.61Zm25.3-10.089-4.677,2.7-4.68-2.7v-5.4l4.68-2.7,4.677,2.7Zm-20.562-24.892-11.361,29.848-3.03-1.749-2.725,1.575-9.7-34.964,10.62-6.131v-8l12.723,4.884v12.536Zm2.008,1.157,6.719,3.879,3.274-1.889,2.56,11.767-5.641,3.255v6.734l-14.815,8.1-3.461-2Zm-3.195-4.484v-11.447l9.914-5.724,9.912,5.724V4712.8l-9.912,5.723Zm-20.567,38.316,7.363-4.246,7.364,4.246v8.5l-7.364,4.25-7.363-4.25Zm38.612-20.278-2.777-12.763,5.341-3.086,12.114,16.13v17.109l-8.687-7.048v-6.884Zm2.611-31.647-9.723-5.612-2.285-16.26,23.159,13.373Zm-22.007.3-13.657-5.243v-9.068l-7.163-4.137,9.145-16.242,19.164,11.069,2.5,17.852Zm-60.653,45.071,8.039,4.637,2.487-1.434,1.415,13.155-18.44-10.645Zm43.847-85.359-53.068,30.64-.1.053v61.394l52.594,30.362.57.331,53.069-30.64.1-.053v-61.394Z" transform="translate(-3285.71 -4659.2)" fill="#fff" stroke="rgba(0,0,0,0)" stroke-width="1"/>
              </g>
              <g id="Group_19183" data-name="Group 19183" transform="translate(0)">
                <line id="Line_332" data-name="Line 332" y1="21.684" transform="translate(141.574 70.895)" fill="none" stroke="#fff" stroke-miterlimit="10" stroke-width="3"/>
                <path id="Path_15848" data-name="Path 15848" d="M3417.072,4713.66v-25.42l-70.787-40.867L3275.5,4688.24v81.739l70.787,40.87,70.787-40.87v-25.194" transform="translate(-3275.499 -4647.373)" fill="none" stroke="#fff" stroke-miterlimit="10" stroke-width="3"/>
                <line id="Line_333" data-name="Line 333" x2="21.684" transform="translate(130.732 81.738)" fill="none" stroke="#fff" stroke-miterlimit="10" stroke-width="3"/>
              </g>
            </g>
          </g>
        </g>
      </g>
    </g>
  </g>
</svg>
